{
    "asset" : {
        "generator" : "Khronos glTF Blender I/O v1.7.33",
        "version" : "2.0"
    },
    "scene" : 0,
    "scenes" : [
        {
            "name" : "Scene",
            "nodes" : [
                0,
                1
            ]
        }
    ],
    "nodes" : [
        {
            "mesh" : 0,
            "name" : "OakTree",
            "rotation" : [
                0,
                0,
                0.0049594431184232235,
                0.9999877214431763
            ],
            "scale" : [
                0.059348225593566895,
                0.059348225593566895,
                0.059348225593566895
            ],
            "translation" : [
                0.028010739013552666,
                0.0014011561870574951,
                0.13746009767055511
            ]
        },
        {
            "name" : "Cylinder",
            "scale" : [
                0.11827987432479858,
                0.11827987432479858,
                0.11827987432479858
            ],
            "translation" : [
                -1.6379903554916382,
                0.26932305097579956,
                -0.2055877447128296
            ]
        }
    ],
    "materials" : [
        {
            "doubleSided" : true,
            "name" : "Wood",
            "pbrMetallicRoughness" : {
                "baseColorFactor" : [
                    0.30319705605506897,
                    0.13692013919353485,
                    0.012913163751363754,
                    1
                ],
                "metallicFactor" : 0,
                "roughnessFactor" : 0.8228346109390259
            }
        },
        {
            "doubleSided" : true,
            "name" : "Green",
            "pbrMetallicRoughness" : {
                "metallicFactor" : 0,
                "roughnessFactor" : 0.7204724550247192
            }
        }
    ],
    "meshes" : [
        {
            "name" : "Plane.001",
            "primitives" : [
                {
                    "attributes" : {
                        "POSITION" : 0,
                        "NORMAL" : 1
                    },
                    "indices" : 2,
                    "material" : 0
                },
                {
                    "attributes" : {
                        "POSITION" : 3,
                        "NORMAL" : 4
                    },
                    "indices" : 5,
                    "material" : 1
                }
            ]
        }
    ],
    "accessors" : [
        {
            "bufferView" : 0,
            "componentType" : 5126,
            "count" : 1697,
            "max" : [
                4.13756799697876,
                10.223949432373047,
                3.2509427070617676
            ],
            "min" : [
                -4.7743449211120605,
                -0.013750160112977028,
                -1.14601731300354
            ],
            "type" : "VEC3"
        },
        {
            "bufferView" : 1,
            "componentType" : 5126,
            "count" : 1697,
            "type" : "VEC3"
        },
        {
            "bufferView" : 2,
            "componentType" : 5123,
            "count" : 2517,
            "type" : "SCALAR"
        },
        {
            "bufferView" : 3,
            "componentType" : 5126,
            "count" : 4524,
            "max" : [
                5.386411190032959,
                14.311317443847656,
                4.3297038078308105
            ],
            "min" : [
                -6.306791305541992,
                8.691106796264648,
                -2.5606462955474854
            ],
            "type" : "VEC3"
        },
        {
            "bufferView" : 4,
            "componentType" : 5126,
            "count" : 4524,
            "type" : "VEC3"
        },
        {
            "bufferView" : 5,
            "componentType" : 5123,
            "count" : 4524,
            "type" : "SCALAR"
        }
    ],
    "bufferViews" : [
        {
            "buffer" : 0,
            "byteLength" : 20364,
            "byteOffset" : 0
        },
        {
            "buffer" : 0,
            "byteLength" : 20364,
            "byteOffset" : 20364
        },
        {
            "buffer" : 0,
            "byteLength" : 5034,
            "byteOffset" : 40728
        },
        {
            "buffer" : 0,
            "byteLength" : 54288,
            "byteOffset" : 45764
        },
        {
            "buffer" : 0,
            "byteLength" : 54288,
            "byteOffset" : 100052
        },
        {
            "buffer" : 0,
            "byteLength" : 9048,
            "byteOffset" : 154340
        }
    ],
    "buffers" : [
        {
            "byteLength" : 163388,
            "uri" : "data:application/octet-stream;base64,"
        }
    ]
}
