{
    "asset" : {
        "generator" : "Khronos glTF Blender I/O v1.7.33",
        "version" : "2.0"
    },
    "scene" : 0,
    "scenes" : [
        {
            "name" : "Scene",
            "nodes" : [
                0,
                1,
                2
            ]
        }
    ],
    "nodes" : [
        {
            "mesh" : 0,
            "name" : "OakTree",
            "rotation" : [
                0,
                0,
                0.0049594431184232235,
                0.9999877214431763
            ],
            "scale" : [
                0.059348225593566895,
                0.059348225593566895,
                0.059348225593566895
            ],
            "translation" : [
                0.028010739013552666,
                0.0014011561870574951,
                0.13746009767055511
            ]
        },
        {
            "name" : "Cylinder",
            "scale" : [
                0.11827987432479858,
                0.11827987432479858,
                0.11827987432479858
            ],
            "translation" : [
                -1.6379903554916382,
                0.26932305097579956,
                -0.2055877447128296
            ]
        },
        {
            "mesh" : 1,
            "name" : "OakTree.001",
            "rotation" : [
                0,
                0,
                0.0049594431184232235,
                0.9999877214431763
            ],
            "scale" : [
                0.059348225593566895,
                0.059348225593566895,
                0.059348225593566895
            ],
            "translation" : [
                0.028010739013552666,
                0.0014011561870574951,
                0.13746009767055511
            ]
        }
    ],
    "materials" : [
        {
            "doubleSided" : true,
            "name" : "Wood",
            "pbrMetallicRoughness" : {
                "baseColorFactor" : [
                    0.30319705605506897,
                    0.13692013919353485,
                    0.012913163751363754,
                    1
                ],
                "metallicFactor" : 0,
                "roughnessFactor" : 0.8228346109390259
            }
        },
        {
            "doubleSided" : true,
            "name" : "Green",
            "pbrMetallicRoughness" : {
                "metallicFactor" : 0,
                "roughnessFactor" : 0.7204724550247192
            }
        }
    ],
    "meshes" : [
        {
            "name" : "Plane.001",
            "primitives" : [
                {
                    "attributes" : {
                        "POSITION" : 0,
                        "NORMAL" : 1
                    },
                    "indices" : 2,
                    "material" : 0
                },
                {
                    "attributes" : {
                        "POSITION" : 3,
                        "NORMAL" : 4
                    },
                    "indices" : 5,
                    "material" : 1
                }
            ]
        },
        {
            "name" : "Plane.002",
            "primitives" : [
                {
                    "attributes" : {
                        "POSITION" : 6,
                        "NORMAL" : 7
                    },
                    "indices" : 8,
                    "material" : 0
                },
                {
                    "attributes" : {
                        "POSITION" : 9,
                        "NORMAL" : 10
                    },
                    "indices" : 11,
                    "material" : 1
                }
            ]
        }
    ],
    "accessors" : [
        {
            "bufferView" : 0,
            "componentType" : 5126,
            "count" : 1197,
            "max" : [
                4.087815761566162,
                9.97757339477539,
                3.016676187515259
            ],
            "min" : [
                -4.714615345001221,
                -0.013750160112977028,
                -1.14601731300354
            ],
            "type" : "VEC3"
        },
        {
            "bufferView" : 1,
            "componentType" : 5126,
            "count" : 1197,
            "type" : "VEC3"
        },
        {
            "bufferView" : 2,
            "componentType" : 5123,
            "count" : 1767,
            "type" : "SCALAR"
        },
        {
            "bufferView" : 3,
            "componentType" : 5126,
            "count" : 33,
            "max" : [
                -0.10143613815307617,
                9.889229774475098,
                3.7526092529296875
            ],
            "min" : [
                -4.229615688323975,
                8.691106796264648,
                -1.4386199712753296
            ],
            "type" : "VEC3"
        },
        {
            "bufferView" : 4,
            "componentType" : 5126,
            "count" : 33,
            "type" : "VEC3"
        },
        {
            "bufferView" : 5,
            "componentType" : 5123,
            "count" : 33,
            "type" : "SCALAR"
        },
        {
            "bufferView" : 6,
            "componentType" : 5126,
            "count" : 500,
            "max" : [
                4.13756799697876,
                10.223949432373047,
                3.2509427070617676
            ],
            "min" : [
                -4.7743449211120605,
                8.625523567199707,
                -0.1593686044216156
            ],
            "type" : "VEC3"
        },
        {
            "bufferView" : 7,
            "componentType" : 5126,
            "count" : 500,
            "type" : "VEC3"
        },
        {
            "bufferView" : 8,
            "componentType" : 5123,
            "count" : 750,
            "type" : "SCALAR"
        },
        {
            "bufferView" : 9,
            "componentType" : 5126,
            "count" : 4491,
            "max" : [
                5.386411190032959,
                14.311317443847656,
                4.3297038078308105
            ],
            "min" : [
                -6.306791305541992,
                8.691106796264648,
                -2.5606462955474854
            ],
            "type" : "VEC3"
        },
        {
            "bufferView" : 10,
            "componentType" : 5126,
            "count" : 4491,
            "type" : "VEC3"
        },
        {
            "bufferView" : 11,
            "componentType" : 5123,
            "count" : 4491,
            "type" : "SCALAR"
        }
    ],
    "bufferViews" : [
        {
            "buffer" : 0,
            "byteLength" : 14364,
            "byteOffset" : 0
        },
        {
            "buffer" : 0,
            "byteLength" : 14364,
            "byteOffset" : 14364
        },
        {
            "buffer" : 0,
            "byteLength" : 3534,
            "byteOffset" : 28728
        },
        {
            "buffer" : 0,
            "byteLength" : 396,
            "byteOffset" : 32264
        },
        {
            "buffer" : 0,
            "byteLength" : 396,
            "byteOffset" : 32660
        },
        {
            "buffer" : 0,
            "byteLength" : 66,
            "byteOffset" : 33056
        },
        {
            "buffer" : 0,
            "byteLength" : 6000,
            "byteOffset" : 33124
        },
        {
            "buffer" : 0,
            "byteLength" : 6000,
            "byteOffset" : 39124
        },
        {
            "buffer" : 0,
            "byteLength" : 1500,
            "byteOffset" : 45124
        },
        {
            "buffer" : 0,
            "byteLength" : 53892,
            "byteOffset" : 46624
        },
        {
            "buffer" : 0,
            "byteLength" : 53892,
            "byteOffset" : 100516
        },
        {
            "buffer" : 0,
            "byteLength" : 8982,
            "byteOffset" : 154408
        }
    ],
    "buffers" : [
        {
            "byteLength" : 163392,
            "uri" : "data:application/octet-stream;base64,"
        }
    ]
}
